# xmcd
#
# Track frame offsets: 
#        150
#        10165
#        23445
#        38087
#        52345
#        68470
#        73405
#        84725
#        97352
#        107127
#        118247
#        133290
#
# Disc length: 1941 seconds
#
# Revision: 0
# Processed by: cddbd v1.5.2PL0 Copyright (c) Steve Scherf et al.
# Submitted via: ExactAudioCopyFreeDBPlugin 1.0
#
DISCID=b007930c
DTITLE=Dale Sanders - Fire in the Desert Sky
DYEAR=2006
DGENRE=Country
TTITLE0=Honky Tonk Song
TTITLE1=Life
TTITLE2=Fire In The Desert Sky
TTITLE3=Can't Slow Down
TTITLE4=You Play Me Like A Symphony
TTITLE5=Alaska
TTITLE6=Piece Of Yesterday
TTITLE7=Never Ending Song
TTITLE8=Fortune In Love
TTITLE9=You Saved My Life
TTITLE10=High Uinta Mountain Cowboys
TTITLE11=The Master's Touch
EXTD=
EXTT0=
EXTT1=
EXTT2=
EXTT3=
EXTT4=
EXTT5=
EXTT6=
EXTT7=
EXTT8=
EXTT9=
EXTT10=
EXTT11=
PLAYORDER=
